<svg version="1.1" xmlns="http://www.w3.org/2000/svg" xmlns:xlink="http://www.w3.org/1999/xlink" x="0px" y="0px" viewBox="0 0 1000 1000" enable-background="new 0 0 1000 1000" xml:space="preserve">
<metadata> Svg Vector Icons : http://www.onlinewebfonts.com/icon </metadata>
<g><path d="M632.8,499.6l329.1,329.1c37.5,37.5,37.5,95.3,0,132.8c-17.3,17.3-43.3,28.9-66.4,28.9c-23.1,0-49.1-11.5-66.4-28.9L500,632.4L170.9,961.5c-17.3,17.3-43.3,28.9-66.4,28.9c-23.1,0-49.1-11.5-66.4-28.9c-37.5-37.5-37.5-95.3,0-132.8l329.1-329.1L38.1,170.6C0.6,133,0.6,75.3,38.1,37.8c37.5-37.5,95.3-37.5,132.8,0L500,366.9L829.1,37.8c37.5-37.5,95.3-37.5,132.8,0c37.5,37.5,37.5,95.3,0,132.8L632.8,499.6L632.8,499.6z"/></g>
</svg>
