<svg version="1.1" xmlns="http://www.w3.org/2000/svg" xmlns:xlink="http://www.w3.org/1999/xlink" x="0px" y="0px"
     viewBox="0 0 1000 1000" enable-background="new 0 0 1000 1000" xml:space="preserve">
<g><path fill="#999" d="M701.9,707.4l71.5,69.2c7.6,7.4,12.4,17.7,12.4,29.2c0,22.5-18.3,40.8-40.8,40.8c-11,0-21-4.4-28.4-11.5l0,0L83.8,223.4c-7.6-7.4-12.4-17.8-12.4-29.2c0-22.5,18.3-40.8,40.8-40.8c11.1,0,21,4.4,28.4,11.5l0,0l110,106.3c70.3-33.1,154.2-56.6,249.5-56.6c296.1,0,490,235.1,490,265C990,503.5,882,640.4,701.9,707.4L701.9,707.4L701.9,707.4z M489.8,275.7c-63.7,0-120.5,28.2-159.8,72.3l72.5,70.1c20.8-25.2,52-41.7,87.3-41.7c62.7,0,113.5,50.7,113.5,113.3c0,33.9-15.2,64-38.9,84.7l72.5,70.1c41.2-39,67.2-93.7,67.2-154.9C704.2,371.6,608.2,275.7,489.8,275.7L489.8,275.7L489.8,275.7z M518.3,743.8c-6.1,0.2-12,0.9-18.3,0.9c-314,0-494-225.5-490-265c0-13.7,38.1-68.3,107-124.4L518.3,743.8L518.3,743.8z"/></g>
</svg>