<svg version="1.1" xmlns="http://www.w3.org/2000/svg" xmlns:xlink="http://www.w3.org/1999/xlink" x="0px" y="0px"
     viewBox="0 0 1000 1000" enable-background="new 0 0 1000 1000" xml:space="preserve">
<g><path fill="#444" d="M494.5,212.5c-234.8,0-382.4,149.6-464.4,234c-25.5,26.2-26,79.6-5.6,101.3c93.6,99.3,239.6,239.8,470.1,239.8c277.9,0,416.5-156.7,476.7-226.1c27.4-31.5,21.6-85.2,2.9-104.5C910.7,391,735.6,212.5,494.5,212.5L494.5,212.5z M500.8,719c-123.3,0-223.3-97.8-223.3-218.5c0-120.7,100-218.5,223.3-218.5c123.3,0,223.3,97.8,223.3,218.5C724.1,621.2,624.1,719,500.8,719L500.8,719z M496.9,375.1c-67.7,0-122.5,54.8-122.5,122.5c0,67.7,54.8,122.5,122.5,122.5c67.6,0,122.5-54.8,122.5-122.5C619.4,430,564.5,375.1,496.9,375.1L496.9,375.1z"/></g>
</svg>